<svg xmlns="http://www.w3.org/2000/svg" width="19.657" height="19.657" viewBox="0 0 19.657 19.657">
  <path id="Path_3" data-name="Path 3" d="M13.061,8.111l1.414,1.414a7,7,0,0,1,0,9.9l-.354.354a7,7,0,1,1-9.9-9.9l1.414,1.414a5,5,0,0,0,7.071,7.071l.354-.354a5,5,0,0,0,0-7.071L11.646,9.525Zm6.717,6.01-1.414-1.414a5,5,0,1,0-7.071-7.071l-.353.354a5,5,0,0,0,0,7.071l1.414,1.414-1.414,1.414L9.525,14.475a7,7,0,0,1,0-9.9l.354-.354a7,7,0,0,1,9.9,9.9Z" transform="translate(-2.171 -2.171)" fill="#9ca3af"/>
</svg>
